<svg width="9" height="9" viewBox="0 0 9 9" fill="none" xmlns="http://www.w3.org/2000/svg">
<path d="M7.91904 0.169642C7.97235 0.116325 8.03565 0.0740316 8.10531 0.0451768C8.17497 0.0163221 8.24964 0.00147091 8.32504 0.00147091C8.40044 0.00147091 8.4751 0.0163221 8.54476 0.0451768C8.61443 0.0740316 8.67772 0.116325 8.73104 0.169642C8.78436 0.222958 8.82665 0.286254 8.8555 0.355916C8.88436 0.425577 8.89921 0.50024 8.89921 0.575642C8.89921 0.651043 8.88436 0.725706 8.8555 0.795367C8.82665 0.865029 8.78436 0.928325 8.73104 0.981642L5.26304 4.45064L8.73104 7.91964L8.80504 8.00964C8.87737 8.12016 8.90945 8.25222 8.89588 8.38361C8.8823 8.515 8.82391 8.63771 8.73051 8.73111C8.63711 8.82451 8.5144 8.88291 8.38301 8.89648C8.25162 8.91005 8.11956 8.87798 8.00904 8.80564L7.91904 8.73164L4.45004 5.26264L0.981039 8.73264C0.927656 8.78596 0.864295 8.82824 0.794573 8.85707C0.724851 8.8859 0.650133 8.90071 0.574685 8.90067C0.499237 8.90062 0.424538 8.88571 0.354851 8.8568C0.285164 8.82788 0.221855 8.78552 0.168539 8.73214C0.115222 8.67876 0.0729418 8.6154 0.0441122 8.54568C0.0152825 8.47595 0.00046804 8.40124 0.00051447 8.32579C0.000560901 8.25034 0.0154673 8.17564 0.0443828 8.10595C0.0732982 8.03627 0.115656 7.97296 0.169039 7.91964L3.63804 4.45064L0.168039 0.981642L0.0950386 0.891641C0.0221353 0.781135 -0.0104022 0.648857 0.0029194 0.517141C0.016241 0.385425 0.0746056 0.262341 0.168159 0.16867C0.261713 0.0749987 0.384724 0.0164795 0.516423 0.0029925C0.648122 -0.0104945 0.780441 0.0218771 0.891039 0.0946416L0.981039 0.169642L4.45004 3.63764L7.91904 0.169642Z" fill="white"/>
</svg>
