<svg width="25" height="27" viewBox="0 0 25 27" fill="none" xmlns="http://www.w3.org/2000/svg">
<path d="M2.48809 24.881C1.80387 24.881 1.21834 24.6375 0.7315 24.1507C0.244663 23.6639 0.000829365 23.0779 0 22.3929V4.97619C0 4.29197 0.243833 3.70644 0.7315 3.2196C1.21917 2.73276 1.8047 2.48893 2.48809 2.4881H3.73214V1.24405C3.73214 0.891572 3.85157 0.596318 4.09043 0.35829C4.32928 0.120262 4.62454 0.000833655 4.97619 4.28981e-06C5.32784 -0.000825075 5.62351 0.118604 5.86319 0.35829C6.10288 0.597976 6.2219 0.89323 6.22024 1.24405V2.4881H16.1726V1.24405C16.1726 0.891572 16.292 0.596318 16.5309 0.35829C16.7698 0.120262 17.065 0.000833655 17.4167 4.28981e-06C17.7683 -0.000825075 18.064 0.118604 18.3037 0.35829C18.5434 0.597976 18.6624 0.89323 18.6607 1.24405V2.4881H19.9048C20.589 2.4881 21.1749 2.73193 21.6626 3.2196C22.1503 3.70726 22.3937 4.2928 22.3929 4.97619V10.7921C22.3929 11.1446 22.2734 11.4403 22.0346 11.6791C21.7957 11.918 21.5005 12.037 21.1488 12.0362C20.7972 12.0353 20.5019 11.9159 20.263 11.6779C20.0242 11.4398 19.9048 11.1446 19.9048 10.7921V9.95238H2.48809V22.3929H9.70357C10.056 22.3929 10.3517 22.5123 10.5906 22.7511C10.8294 22.99 10.9484 23.2853 10.9476 23.6369C10.9468 23.9886 10.8274 24.2842 10.5893 24.5239C10.3513 24.7636 10.056 24.8826 9.70357 24.881H2.48809ZM18.6607 26.125C16.9398 26.125 15.473 25.5183 14.2605 24.305C13.048 23.0916 12.4413 21.6249 12.4405 19.9048C12.4396 18.1847 13.0463 16.7179 14.2605 15.5046C15.4747 14.2912 16.9414 13.6845 18.6607 13.6845C20.38 13.6845 21.8471 14.2912 23.0621 15.5046C24.2772 16.7179 24.8834 18.1847 24.8809 19.9048C24.8785 21.6249 24.2718 23.092 23.0609 24.3062C21.85 25.5204 20.3833 26.1267 18.6607 26.125ZM19.2827 19.656V16.7946C19.2827 16.6288 19.2205 16.4836 19.0961 16.3592C18.9717 16.2348 18.8266 16.1726 18.6607 16.1726C18.4948 16.1726 18.3497 16.2348 18.2253 16.3592C18.1009 16.4836 18.0387 16.6288 18.0387 16.7946V19.6249C18.0387 19.7907 18.0698 19.9516 18.132 20.1075C18.1942 20.2635 18.2875 20.4032 18.4119 20.5268L20.3091 22.424C20.4335 22.5484 20.5786 22.6106 20.7445 22.6106C20.9104 22.6106 21.0555 22.5484 21.1799 22.424C21.3043 22.2996 21.3665 22.1544 21.3665 21.9885C21.3665 21.8227 21.3043 21.6775 21.1799 21.5531L19.2827 19.656Z" fill="black"/>
</svg>
