<svg width="40" height="40" viewBox="0 0 40 40" fill="none" xmlns="http://www.w3.org/2000/svg">
<path fill-rule="evenodd" clip-rule="evenodd" d="M35.5555 31.1111C38.0101 31.1111 40 33.1009 40 35.5555C40 38.0101 38.0101 40 35.5555 40C33.1009 40 31.1111 38.0101 31.1111 35.5555C31.1111 33.1009 33.1009 31.1111 35.5555 31.1111ZM10.7318 2.22219H23.3333C28.8562 2.22219 33.3333 6.69937 33.3333 12.2222C33.3333 17.7451 28.8562 22.2222 23.3333 22.2222H14.4445C11.3761 22.2222 8.88885 24.7095 8.88885 27.7778C8.88885 30.846 11.3761 33.3333 14.4445 33.3333H29.2682C29.0163 34.0471 28.888 34.7986 28.8889 35.5555C28.8889 36.3347 29.0226 37.0827 29.2682 37.7778H14.4445C8.92156 37.7778 4.44448 33.3006 4.44448 27.7778C4.44448 22.2549 8.92156 17.7778 14.4445 17.7778H23.3333C26.4016 17.7778 28.8889 15.2905 28.8889 12.2222C28.8889 9.15396 26.4016 6.66667 23.3333 6.66667H10.7318C10.9837 5.9529 11.112 5.20139 11.1111 4.44448C11.112 3.68753 10.9837 2.93599 10.7318 2.22219ZM4.44448 0C6.89906 0 8.88885 1.9899 8.88885 4.44448C8.88885 6.89906 6.89906 8.88885 4.44448 8.88885C1.9899 8.88885 0 6.89906 0 4.44448C0 1.9899 1.9899 0 4.44448 0Z" fill="black"/>
</svg>
