<svg width="50" height="50" viewBox="0 0 50 50" fill="none" xmlns="http://www.w3.org/2000/svg">
<path fill-rule="evenodd" clip-rule="evenodd" d="M25 5C21.5019 4.99936 18.0648 5.91622 15.0318 7.65907C11.9988 9.40192 9.47593 11.9098 7.71506 14.9324C5.95418 17.955 5.01687 21.3865 4.99669 24.8846C4.9765 28.3826 5.87414 31.8248 7.60002 34.8675C8.76654 33.3514 10.2661 32.124 11.9827 31.2799C13.6994 30.4359 15.5871 29.998 17.5 30H32.5C34.4129 29.998 36.3006 30.4359 38.0173 31.2799C39.7339 32.124 41.2335 33.3514 42.4 34.8675C44.1259 31.8248 45.0235 28.3826 45.0033 24.8846C44.9831 21.3865 44.0458 17.955 42.2849 14.9324C40.5241 11.9098 38.0012 9.40192 34.9682 7.65907C31.9352 5.91622 28.4981 4.99936 25 5ZM44.8575 40.19C45.1708 39.7817 45.4708 39.3633 45.7575 38.935C48.5291 34.8167 50.0065 29.964 50 25C50 11.1925 38.8075 0 25 0C11.1925 0 2.56386e-05 11.1925 2.56386e-05 25C-0.00785267 30.4919 1.80012 35.8323 5.14252 40.19L5.13002 40.235L6.01752 41.2675C8.36223 44.0088 11.2735 46.209 14.5506 47.7166C17.8277 49.2242 21.3928 50.0032 25 50C25.54 50 26.0767 49.9833 26.61 49.95C31.121 49.6655 35.4692 48.1574 39.1875 45.5875C40.9658 44.3607 42.5775 42.9086 43.9825 41.2675L44.87 40.235L44.8575 40.19ZM25 10C23.0109 10 21.1032 10.7902 19.6967 12.1967C18.2902 13.6032 17.5 15.5109 17.5 17.5C17.5 19.4891 18.2902 21.3968 19.6967 22.8033C21.1032 24.2098 23.0109 25 25 25C26.9891 25 28.8968 24.2098 30.3033 22.8033C31.7098 21.3968 32.5 19.4891 32.5 17.5C32.5 15.5109 31.7098 13.6032 30.3033 12.1967C28.8968 10.7902 26.9891 10 25 10Z" fill="black"/>
</svg>
