<svg width="25" height="29" viewBox="0 0 25 29" fill="none" xmlns="http://www.w3.org/2000/svg">
<path d="M12.4265 0C13.1956 0 13.9333 0.305535 14.4771 0.84939C15.021 1.39325 15.3265 2.13087 15.3265 2.9C15.3265 4.5095 14.036 5.8 12.4265 5.8C11.6574 5.8 10.9197 5.49447 10.3759 4.95061C9.83204 4.40675 9.5265 3.66913 9.5265 2.9C9.5265 2.13087 9.83204 1.39325 10.3759 0.84939C10.9197 0.305535 11.6574 0 12.4265 0ZM12.992 18.5455C15.0517 18.5375 17.1099 18.6586 19.1545 18.908C19.2415 14.964 18.8935 11.484 18.2265 10.15C18.038 9.7585 17.777 9.425 17.5015 9.135L5.8 19.169C7.772 18.85 10.2515 18.5455 12.992 18.5455ZM5.8435 21.75C6.032 24.273 6.409 26.825 7.018 29H10.0195C9.599 27.724 9.2945 26.2305 9.0625 24.65C9.0625 24.65 12.4265 24.012 15.7905 24.65C15.5585 26.2305 15.254 27.724 14.8335 29H17.835C18.473 26.7525 18.85 24.0845 19.0385 21.4455C17.032 21.2044 15.0129 21.0833 12.992 21.083C10.1935 21.083 7.7575 21.3875 5.8435 21.75ZM12.4265 7.25C12.4265 7.25 8.0765 7.25 6.6265 10.15C6.1335 11.136 5.8145 13.2675 5.713 15.892L15.2105 7.743C13.775 7.25 12.4265 7.25 12.4265 7.25ZM21.953 5.3215L20.3 3.393L15.2105 7.7575C16.008 8.033 16.849 8.468 17.5015 9.135L21.953 5.3215ZM24.998 20.0535C24.8675 20.01 22.7795 19.3285 19.1545 18.908C19.14 19.7345 19.0965 20.59 19.0385 21.4455C22.301 21.8515 24.1715 22.475 24.2005 22.475L24.998 20.0535ZM5.713 15.892L0 20.793L1.2905 22.939C1.3195 22.9245 3.0015 22.272 5.8435 21.75C5.684 19.7055 5.6405 17.69 5.713 15.892Z" fill="black"/>
</svg>
