<svg width="40" height="40" viewBox="0 0 40 40" fill="none" xmlns="http://www.w3.org/2000/svg">
<path d="M20 0C8.94372 0 0 8.94372 0 20C0 31.0563 8.94372 40 20 40C31.0563 40 40 31.0563 40 20C40 8.94372 31.0563 0 20 0ZM20 2.5974C29.6017 2.5974 37.4026 10.3983 37.4026 20C37.4026 29.6017 29.6017 37.4026 20 37.4026C10.3983 37.4026 2.5974 29.6017 2.5974 20C2.5974 10.3983 10.3983 2.5974 20 2.5974ZM4.80693 15.4892C4.39913 17.1515 4.15584 18.6926 4.15584 20.1645C16.684 22.7879 14.6753 25.5671 16.9697 35.5584C17.9567 35.7403 18.961 35.8442 20 35.8442C21.039 35.8442 22.0433 35.7403 23.0303 35.5584C25.3247 25.5671 23.316 22.7879 35.8442 20.1645C35.7922 18.5281 35.5844 16.8398 35.1948 15.4892C27.8528 13.6537 23.9048 12.7273 20 12.7273C16.0952 12.7273 12.1472 13.6537 4.80693 15.4892ZM20 13.6797C23.4805 13.6797 26.3203 16.5195 26.3203 20C26.3203 23.4805 23.4805 26.3203 20 26.3203C16.5195 26.3203 13.6797 23.4805 13.6797 20C13.6797 16.5195 16.5195 13.6797 20 13.6797ZM20 15.2381C17.3593 15.2381 15.2381 17.3593 15.2381 20C15.2381 22.6407 17.3593 24.7619 20 24.7619C22.6407 24.7619 24.7619 22.6407 24.7619 20C24.7619 17.3593 22.6407 15.2381 20 15.2381Z" fill="black"/>
</svg>
